
<svg version="1.1" xmlns="http://www.w3.org/2000/svg" xmlns:xlink="http://www.w3.org/1999/xlink" viewBox="0 0 1250 456">
<title>CSS Declaration</title>
<text transform="matrix(1 0 0 1 143.0474 252.9121)" fill="#39B54A" font-family="'Inconsolata'" font-size="140">p</text>
<text transform="matrix(1 0 0 1 213.0474 252.9121)" font-family="'Inconsolata'" font-size="140"> </text>
<text transform="matrix(1 0 0 1 283.0474 252.9121)" fill="#39B54A" font-family="'Inconsolata'" font-size="140">{</text>
<text transform="matrix(1 0 0 1 353.0474 252.9121)" fill="#7F3F98" font-family="'Inconsolata'" font-size="140">color:</text>
<text transform="matrix(1 0 0 1 773.0474 252.9121)" font-family="'Inconsolata'" font-size="140">#000;</text>
<text transform="matrix(1 0 0 1 1123.0474 252.9121)" fill="#39B54A" font-family="'Inconsolata'" font-size="140">}</text>
<path fill="#939598" d="M231,152.2V149c0-1.4-0.4-2.6-1.2-3.6c-0.8-1-1.8-1.8-3.1-2.4c-1.3-0.6-2.7-1.1-4.3-1.3
c-1.6-0.3-3.3-0.4-5.1-0.4h-19.7c-3.6,0-6.8-0.4-9.4-1.3c-2.7-0.8-4.9-1.8-6.6-2.9c-1.8-1.1-3.1-2.2-4.1-3.3
c-0.9-1.1-1.5-1.8-1.7-2.3h-0.3c-0.3,0.5-0.9,1.2-1.8,2.3c-0.9,1.1-2.3,2.2-4,3.3c-1.7,1.1-3.9,2.1-6.6,2.9s-5.8,1.3-9.4,1.3h-19.9
c-1.7,0-3.3,0.1-5,0.4c-1.6,0.3-3.1,0.7-4.3,1.3c-1.3,0.6-2.3,1.4-3.1,2.4c-0.8,1-1.2,2.2-1.2,3.6v3.2h-6.7v-7c0-3.9,1.5-7,4.6-9.1
c3-2.1,7.2-3.2,12.4-3.2h20.4c2.7,0,5.3-0.1,7.9-0.4c2.6-0.3,4.9-0.8,6.9-1.5c2-0.7,3.6-1.8,4.8-3c1.2-1.3,1.8-2.9,1.8-4.8h6.7
c0,2,0.6,3.6,1.8,4.8c1.2,1.3,2.8,2.3,4.8,3c2,0.7,4.3,1.3,6.9,1.5c2.6,0.3,5.3,0.4,8,0.4h20.3c5.3,0,9.5,1.1,12.5,3.2
c3,2.1,4.5,5.2,4.5,9.1v7H231z"/>
<path fill="#939598" d="M474.1,284.1v3.2c0,1.4,0.4,2.6,1.2,3.6c0.8,1,1.8,1.8,3.1,2.4c1.3,0.6,2.7,1,4.3,1.3
c1.6,0.3,3.3,0.4,5.1,0.4h19.7c3.6,0,6.8,0.4,9.4,1.3c2.7,0.8,4.9,1.8,6.6,2.9c1.8,1.1,3.1,2.2,4.1,3.3c0.9,1.1,1.5,1.8,1.7,2.3
h0.3c0.3-0.5,0.9-1.2,1.8-2.3c0.9-1.1,2.3-2.2,4-3.3c1.7-1.1,3.9-2.1,6.6-2.9s5.8-1.3,9.5-1.3h19.9c1.7,0,3.3-0.1,5-0.4
c1.6-0.3,3.1-0.7,4.3-1.3c1.3-0.6,2.3-1.4,3.1-2.4c0.8-1,1.2-2.2,1.2-3.6v-3.2h6.7v7c0,3.9-1.5,7-4.5,9.1c-3,2.1-7.2,3.2-12.4,3.2
h-20.4c-2.7,0-5.3,0.1-7.9,0.4c-2.6,0.3-4.9,0.8-6.9,1.5c-2,0.7-3.6,1.8-4.8,3c-1.2,1.3-1.8,2.9-1.8,4.8h-6.7c0-2-0.6-3.6-1.8-4.8
c-1.2-1.3-2.8-2.3-4.8-3c-2-0.7-4.3-1.3-6.9-1.5c-2.6-0.3-5.3-0.4-8-0.4h-20.3c-5.3,0-9.5-1.1-12.5-3.2c-3-2.1-4.5-5.2-4.5-9.1v-7
H474.1z"/>
<path fill="#939598" d="M997,148.2V145c0-1.4-0.4-2.6-1.2-3.6c-0.8-1-1.8-1.8-3.1-2.4c-1.3-0.6-2.7-1.1-4.3-1.3
c-1.6-0.3-3.3-0.4-5.1-0.4h-19.7c-3.6,0-6.8-0.4-9.5-1.3c-2.7-0.8-4.9-1.8-6.6-2.9c-1.8-1.1-3.1-2.2-4.1-3.3
c-0.9-1.1-1.5-1.8-1.7-2.3h-0.3c-0.3,0.5-0.9,1.2-1.8,2.3c-0.9,1.1-2.3,2.2-4,3.3c-1.7,1.1-3.9,2.1-6.6,2.9s-5.8,1.3-9.5,1.3h-19.9
c-1.7,0-3.3,0.1-5,0.4c-1.6,0.3-3.1,0.7-4.3,1.3c-1.3,0.6-2.3,1.4-3.1,2.4c-0.8,1-1.2,2.2-1.2,3.6v3.2h-6.7v-7c0-3.9,1.5-7,4.5-9.1
c3-2.1,7.2-3.2,12.4-3.2h20.4c2.7,0,5.3-0.1,7.9-0.4c2.6-0.3,4.9-0.8,6.9-1.5c2-0.7,3.6-1.8,4.8-3c1.2-1.3,1.8-2.9,1.8-4.8h6.7
c0,2,0.6,3.6,1.8,4.8c1.2,1.3,2.8,2.3,4.8,3c2,0.7,4.3,1.3,6.9,1.5c2.6,0.3,5.3,0.4,8,0.4h20.3c5.3,0,9.5,1.1,12.5,3.2
c3,2.1,4.5,5.2,4.5,9.1v7H997z"/>
</svg>
