<svg xmlns="http://www.w3.org/2000/svg" viewBox="0 0 800 907"
enable-background="new 0 0 800 907"><style type="text/css">.st0{display:none;}
.st1{display:inline;} .st2{fill:#FFFFFF;}
.st3{fill:none;stroke:#9882CE;stroke-width:4;stroke-miterlimit:10;}
.st4{fill:#FFFFFF;stroke:#404040;stroke-width:4;stroke-linecap:round;stroke-linejoin:round;stroke-miterlimit:10;}
.st5{fill:#FFFFFF;stroke:#404040;stroke-width:4;stroke-miterlimit:10;}
.st6{fill:#B3E3FF;stroke:#404040;stroke-width:4;stroke-miterlimit:10;}
.st7{fill:#B18BE8;stroke:#404040;stroke-width:4;stroke-miterlimit:10;}
.st8{fill:#FFFFFF;stroke:#404040;stroke-width:6;stroke-miterlimit:10;}
.st9{fill:#B3E3FF;stroke:#404040;stroke-width:6;stroke-miterlimit:10;}
.st10{fill:#404040;}
.st11{fill:none;stroke:#404040;stroke-width:4;stroke-linecap:round;stroke-linejoin:round;stroke-miterlimit:10;}
.st12{fill:#B18BE8;stroke:#404040;stroke-width:4;stroke-linecap:round;stroke-linejoin:round;stroke-miterlimit:10;}
.st13{fill:#444444;}
.st14{fill:none;stroke:#404040;stroke-width:4;stroke-miterlimit:10;}
.st15{fill:#4ED1A1;stroke:#404040;stroke-width:4;stroke-miterlimit:10;}
.st16{fill:none;stroke:#CCCCCC;stroke-width:7;stroke-linecap:round;stroke-linejoin:round;stroke-miterlimit:10;}
.st17{fill:#FFFFFF;stroke:#CCCCCC;stroke-width:7;stroke-linecap:round;stroke-linejoin:round;stroke-miterlimit:10;}
.st18{fill:none;stroke:#404040;stroke-width:7;stroke-miterlimit:10;}
.st19{fill:#B3E3FF;stroke:#404040;stroke-width:7;stroke-miterlimit:10;}
.st20{fill:none;stroke:#CCCCCC;stroke-width:8;stroke-linecap:round;stroke-miterlimit:10;}
.st21{fill:none;stroke:#404040;stroke-width:8;stroke-linecap:round;stroke-miterlimit:10;}
.st22{fill:#FFFFFF;stroke:#404040;stroke-width:4;stroke-linejoin:round;stroke-miterlimit:10;}
.st23{fill:#B3E3FF;stroke:#404040;stroke-width:4;stroke-linejoin:round;stroke-miterlimit:10;}
.st24{fill:none;stroke:#CCCCCC;stroke-linecap:round;stroke-linejoin:round;stroke-miterlimit:10;}
.st25{fill:#999999;}
.st26{fill:#4ED1A1;stroke:#404040;stroke-width:4;stroke-linecap:round;stroke-linejoin:round;stroke-miterlimit:10;}
.st27{fill:#4CD3D6;stroke:#404040;stroke-width:4;stroke-linejoin:round;stroke-miterlimit:10;}
.st28{fill:none;stroke:#59AFE1;stroke-width:4;stroke-miterlimit:10;}
.st29{fill:#59AFE1;stroke:#404040;stroke-width:4;stroke-linejoin:round;stroke-miterlimit:10;}
.st30{fill:none;stroke:#404040;stroke-width:8;stroke-linecap:round;stroke-linejoin:round;stroke-miterlimit:10;stroke-dasharray:0,30;}
.st31{fill:#FFFFFF;stroke:#59AFE1;stroke-width:4;stroke-miterlimit:10;}
.st32{fill:#FC8363;stroke:#404040;stroke-width:4;stroke-linecap:round;stroke-linejoin:round;stroke-miterlimit:10;}
.st33{fill:#CCCCCC;stroke:#404040;stroke-width:4;stroke-miterlimit:10;}
.st34{fill:#FFFFFF;stroke:#6693ED;stroke-width:4;stroke-miterlimit:10;}
.st35{fill:none;stroke:#A97CDD;stroke-width:4;stroke-linecap:round;stroke-linejoin:round;stroke-miterlimit:10;}
.st36{fill:none;stroke:#B3E3FF;stroke-width:4;stroke-linecap:round;stroke-linejoin:round;stroke-miterlimit:10;}
.st37{fill:none;stroke:#4ED1A1;stroke-width:4;stroke-linecap:round;stroke-miterlimit:10;}
.st38{fill:none;stroke:#4ED1A1;stroke-width:4;stroke-linecap:round;stroke-linejoin:round;stroke-miterlimit:10;}
.st39{fill:#E24B88;stroke:#404040;stroke-width:4;stroke-linecap:round;stroke-linejoin:round;stroke-miterlimit:10;}
.st40{fill:none;stroke:#DEEFF8;stroke-width:4;stroke-miterlimit:10;}
.st41{fill:none;stroke:#CCCCCC;stroke-width:4;stroke-linecap:round;stroke-linejoin:round;}
.st42{fill:none;stroke:#CCCCCC;stroke-width:4;stroke-linecap:round;stroke-linejoin:round;stroke-dasharray:0,14.3051;}
.st43{fill:none;stroke:#CCCCCC;stroke-width:4;stroke-linecap:round;stroke-linejoin:round;stroke-dasharray:0,14.1689;}
.st44{fill:none;stroke:#CCCCCC;stroke-width:4;stroke-linecap:round;stroke-linejoin:round;stroke-dasharray:0,13.9788;}
.st45{fill:none;stroke:#CCCCCC;stroke-width:4;stroke-linecap:round;stroke-linejoin:round;stroke-dasharray:0,14.7877;}
.st46{fill:none;stroke:#CCCCCC;stroke-width:4;stroke-linecap:round;stroke-linejoin:round;stroke-dasharray:0,14.9632;}
.st47{fill:#B3E3FF;stroke:#404040;stroke-width:4;stroke-linecap:round;stroke-linejoin:round;stroke-miterlimit:10;}
.st48{fill:none;stroke:#CCCCCC;stroke-width:4;stroke-linecap:round;stroke-linejoin:round;stroke-dasharray:0,12.543;}
.st49{fill:none;stroke:#CCCCCC;stroke-width:4;stroke-linecap:round;stroke-linejoin:round;stroke-dasharray:0,13.6844;}
.st50{fill:none;stroke:#CCCCCC;stroke-width:4;stroke-linecap:round;stroke-linejoin:round;stroke-dasharray:0,13.7717;}
.st51{fill:none;stroke:#CCCCCC;stroke-width:4;stroke-linecap:round;stroke-linejoin:round;stroke-dasharray:0,13.6492;}
.st52{fill:none;stroke:#CCCCCC;stroke-width:4;stroke-linecap:round;stroke-linejoin:round;stroke-dasharray:0,13.907;}
.st53{fill:#4CD3D6;stroke:#404040;stroke-width:4;stroke-linecap:round;stroke-linejoin:round;stroke-miterlimit:10;}
.st54{fill:none;stroke:#CCCCCC;stroke-width:4;stroke-linecap:round;stroke-linejoin:round;stroke-dasharray:0,14.9858;}
.st55{fill:none;stroke:#CCCCCC;stroke-width:4;stroke-linecap:round;stroke-linejoin:round;stroke-dasharray:0,14.0118;}
.st56{fill:none;stroke:#CCCCCC;stroke-width:4;stroke-linecap:round;stroke-linejoin:round;stroke-dasharray:0,14.1243;}
.st57{fill:none;}
.st58{fill:#FFFFFF;stroke:#404040;stroke-width:7;stroke-linecap:round;stroke-linejoin:round;stroke-miterlimit:10;}
.st59{fill:#59AFE1;stroke:#404040;stroke-width:7;stroke-linejoin:round;stroke-miterlimit:10;}
.st60{fill:#E24B88;stroke:#404040;stroke-width:7;stroke-linecap:round;stroke-linejoin:round;stroke-miterlimit:10;}
.st61{fill:none;stroke:#404040;stroke-width:7;stroke-linecap:round;stroke-linejoin:round;stroke-miterlimit:10;}
.st62{fill:none;stroke:#CCCCCC;stroke-width:4;stroke-linecap:round;stroke-linejoin:round;stroke-miterlimit:10;}
.st63{fill:#FFFFFF;stroke:#CCCCCC;stroke-width:4;stroke-linecap:round;stroke-linejoin:round;stroke-miterlimit:10;}
.st64{fill:#F5F5F5;} .st65{fill:#3873AE;} .st66{fill:#75706C;}
.st67{fill:none;stroke:#B3E3FF;stroke-width:4;stroke-miterlimit:10;}
.st68{fill:#6F6F6F;}
.st69{fill:none;stroke:#6F6F6F;stroke-width:2;stroke-miterlimit:10;}
.st70{fill:none;stroke:#6F6F6F;stroke-width:3;stroke-miterlimit:10;}</style><g
id="git_x5F_branch_x5F_6"><path class="st23" d="M273.5
176.9h96.2v50h-96.2z"/><path class="st10" d="M308.2 207.9v-8.3l-3.6
8.3h-1.3l-3.6-8.3v8.3h-1.5v-10.6h2l3.7 8.7
3.8-8.7h2v10.6h-1.5zm6.4-4.2l1.9-.3c.4-.1.6-.3.6-.5 0-.7-.5-1.3-1.6-1.3-1
0-1.5.6-1.6 1.5l-1.4-.3c.2-1.4 1.4-2.3 3-2.3 2.2 0 3 1.2 3 2.6v3.6c0 .6.1 1 .1
1.2h-1.4c0-.2-.1-.5-.1-1-.3.5-1 1.2-2.3 1.2-1.5 0-2.4-1-2.4-2.2 0-1.3 1-2
2.2-2.2zm2.5 1.1v-.3l-2.2.3c-.6.1-1 .4-1 1.1 0 .5.4 1 1.2 1 1.1 0 2-.5 2-2.1zm5
.7c.1.8.7 1.3 1.7 1.3.8 0 1.2-.5 1.2-1s-.3-.8-.9-.9l-1.2-.3c-1.1-.2-1.8-1-1.8-2
0-1.2 1.2-2.3 2.6-2.3 2 0 2.6 1.3 2.7 1.9l-1.2.5c-.1-.4-.4-1.2-1.5-1.2-.7
0-1.2.5-1.2 1 0 .4.3.8.8.9l1.2.3c1.3.3 2 1.1 2 2.1s-.9 2.2-2.6 2.2c-2
0-2.8-1.3-2.9-2.1l1.1-.4zm8.8-4.8h1.6v1.3h-1.6v3.8c0 .7.3 1 1 1 .2 0 .4 0
.6-.1v1.2c-.1 0-.5.1-1 .1-1.2 0-2-.8-2-2.1v-4h-1.4v-1.3h.4c.8 0 1.1-.5
1.1-1.1v-1.2h1.3v2.4zm10.4 5.1c-.4 1.3-1.6 2.3-3.2 2.3-1.9 0-3.6-1.4-3.6-3.9
0-2.3 1.6-3.8 3.4-3.8 2.2 0 3.5 1.5 3.5 3.8v.4h-5.4c0 1.3 1 2.2 2.2 2.2 1.2 0
1.8-.6 2-1.5l1.1.5zm-1.4-2.3c0-1-.7-1.8-2-1.8-1.2 0-1.9.9-2
1.8h4zm8-1.4h-.6c-1.2 0-2 .6-2 2.2v3.6h-1.4v-7.2h1.4v1.3c.5-1.1 1.4-1.4
2.2-1.4h.5v1.5z"/><path class="st11" d="M321.6 272.5v-23.5m10.8 14.8l-10.8
10.9-10.9-10.9m305.2-28.4h-83 41.2m-154.9 41c0 22.6-18.4 41-41
41h-202.2m243.2-41c0-22.6 18.4-41 41-41h30.7"/><circle class="st29" cx="321.6"
cy="317.4" r="21"/><circle class="st4" cx="511.9" cy="235.4" r="21"/><circle
class="st4" cx="595.1" cy="235.4" r="21"/><circle class="st4" cx="238.3"
cy="317.4" r="21"/><circle class="st4" cx="155.1" cy="317.4" r="21"/><path
class="st12" d="M524.3 99.5h141.6v50h-141.6z"/><path class="st10" d="M552.1
122.8c-.1-.8-.8-1.8-2.2-1.8-1.2 0-2.1.8-2.1 1.8 0 .8.5 1.3 1.4 1.5l1.6.3c1.8.4
2.8 1.5 2.8 3 0 1.6-1.4 3.1-3.7 3.1-2.6 0-3.8-1.6-4-3.2l1.4-.4c.1 1.2.9 2.3 2.5
2.3 1.5 0 2.2-.8 2.2-1.7 0-.8-.5-1.4-1.6-1.7l-1.5-.3c-1.5-.3-2.6-1.3-2.6-2.9
0-1.7 1.5-3.2 3.5-3.2 2.4 0 3.4 1.5 3.6 2.6l-1.3.6zm10.7 4.1c0 2.2-1.5 3.8-3.7
3.8s-3.7-1.6-3.7-3.8c0-2.2 1.5-3.8 3.7-3.8s3.7 1.6 3.7 3.8zm-1.4
0c0-1.7-1.1-2.6-2.2-2.6s-2.2.9-2.2 2.6c0 1.7 1.1 2.6 2.2 2.6s2.2-.9
2.2-2.6zm3.9 3.6v-7.2h1.3v1c.5-.8 1.4-1.2 2.2-1.2.9 0 1.8.4 2.2 1.4.6-1 1.5-1.4
2.4-1.4 1.3 0 2.5.9 2.5 2.7v4.7h-1.4v-4.5c0-.9-.5-1.6-1.5-1.6s-1.7.8-1.7
1.8v4.4h-1.3v-4.6c0-.9-.4-1.6-1.5-1.6-1 0-1.7.8-1.7 1.8v4.3h-1.5zm19.9-2c-.4
1.3-1.6 2.3-3.2 2.3-1.9 0-3.6-1.4-3.6-3.9 0-2.3 1.6-3.8 3.4-3.8 2.2 0 3.5 1.5
3.5 3.8v.5h-5.4c0 1.3 1 2.2 2.2 2.2 1.2 0 1.8-.6
2-1.5l1.1.4zm-1.4-2.3c0-1-.7-1.8-2-1.8-1.2 0-1.9.9-2 1.8h4zm8.7
4.3v-10.6h6.5v1.4h-5v3.4h4.5v1.4h-4.5v4.5h-1.5zm14.6-2c-.4 1.3-1.6 2.3-3.2
2.3-1.9 0-3.6-1.4-3.6-3.9 0-2.3 1.6-3.8 3.4-3.8 2.2 0 3.5 1.5 3.5 3.8v.5h-5.4c0
1.3 1 2.2 2.2 2.2 1.2 0 1.8-.6 2-1.5l1.1.4zm-1.4-2.3c0-1-.7-1.8-2-1.8-1.2
0-1.9.9-2 1.8h4zm5.7.2l1.9-.3c.4-.1.6-.3.6-.5 0-.7-.5-1.3-1.6-1.3-1 0-1.5.6-1.6
1.5l-1.4-.3c.2-1.4 1.4-2.3 3-2.3 2.2 0 3 1.2 3 2.6v3.6c0 .6.1 1 .1
1.2h-1.4c0-.2-.1-.5-.1-1-.3.5-1 1.2-2.3 1.2-1.5 0-2.4-1-2.4-2.2.1-1.3 1-2
2.2-2.2zm2.5 1.1v-.3l-2.2.3c-.6.1-1.1.4-1.1 1.1 0 .5.4 1 1.2 1 1.2 0 2.1-.6
2.1-2.1zm6.3-4.2h1.6v1.3h-1.6v3.8c0 .7.3 1 1 1 .2 0 .4 0 .6-.1v1.2c-.1 0-.5.1-1
.1-1.2 0-2-.8-2-2.1v-4h-1.4v-1.3h.4c.8 0 1.1-.5 1.1-1.1v-1.1h1.3v2.3zm6.8
7.5c-1.7 0-2.7-1.3-2.7-2.9v-4.5h1.4v4.3c0 1 .4 1.9 1.6 1.9 1.1 0 1.7-.8
1.7-1.8v-4.3h1.4v5.9c0 .6 0 1.1.1 1.3h-1.4c0-.2-.1-.6-.1-.9-.3.6-1.2 1-2
1zm10.6-6h-.6c-1.2 0-2 .6-2 2.2v3.6h-1.4v-7.2h1.4v1.3c.5-1.1 1.4-1.4
2.2-1.4h.5v1.5zm8.5 3.7c-.4 1.3-1.6 2.3-3.2 2.3-1.9 0-3.6-1.4-3.6-3.9 0-2.3
1.6-3.8 3.4-3.8 2.2 0 3.5 1.5 3.5 3.8v.5h-5.4c0 1.3 1 2.2 2.2 2.2 1.2 0 1.8-.6
2-1.5l1.1.4zm-1.4-2.3c0-1-.7-1.8-2-1.8-1.2 0-1.9.9-2 1.8h4z"/><path
class="st11" d="M595.1 192.7v-23.5m10.9 14.8l-10.9 10.9-10.9-10.9"/></g>
</svg>
